# xmcd
#
# Track frame offsets: 
#        150
#        14272
#        28604
#        45852
#        60291
#        76490
#        90346
#        106590
#        119265
#        137851
#        154053
#        171597
#
# Disc length: 2504 seconds
#
# Revision: 0
# Processed by: cddbd v1.5.2PL0 Copyright (c) Steve Scherf et al.
# Submitted via: ExactAudioCopy v1.0b3
#
DISCID=8609c60c
DTITLE=Lana Wolf - Fireflies in Nashville
DYEAR=2017
DGENRE=Country
TTITLE0=Ball and Chain
TTITLE1=Another Time or Place
TTITLE2=Sunshine and Love
TTITLE3=One in a Million Man
TTITLE4=Where Are You Now (feat. Michael Lusk)
TTITLE5=Love Being a 70's Child
TTITLE6=Dream Chaser
TTITLE7=Bobby Joe
TTITLE8=Biggest Fan in Town
TTITLE9=Heartlock
TTITLE10=Damn Dailies
TTITLE11=No Place Like Home
EXTD=
EXTT0=
EXTT1=
EXTT2=
EXTT3=
EXTT4=
EXTT5=
EXTT6=
EXTT7=
EXTT8=
EXTT9=
EXTT10=
EXTT11=
PLAYORDER=
